<?xml version="1.0" standalone="no"?>
<!DOCTYPE svg PUBLIC "-//W3C//DTD SVG 20010904//EN"
 "http://www.w3.org/TR/2001/REC-SVG-20010904/DTD/svg10.dtd">
<svg version="1.0" xmlns="http://www.w3.org/2000/svg"
 width="300.000000pt" height="107.000000pt" viewBox="0 0 300.000000 107.000000"
 preserveAspectRatio="xMidYMid meet">
<metadata>
Created by potrace 1.10, written by Peter Selinger 2001-2011
</metadata>
<g transform="translate(0.000000,107.000000) scale(0.100000,-0.100000)"
fill="#fff" stroke="none">
<path d="M60 915 l0 -115 65 0 65 0 0 -270 0 -270 -65 0 -65 0 0 -105 0 -105
340 0 340 0 0 105 0 105 -65 0 -65 0 0 270 0 270 65 0 65 0 0 115 0 115 -340
0 -340 0 0 -115z m650 0 l0 -85 -47 0 c-85 0 -83 6 -83 -301 0 -265 0 -268 22
-283 12 -9 42 -16 65 -16 l43 0 0 -75 0 -75 -310 0 -310 0 0 75 0 75 43 0 c23
0 53 7 65 16 22 15 22 18 22 281 0 307 1 303 -82 303 l-48 0 0 85 0 85 310 0
310 0 0 -85z"/>
<path d="M780 695 l0 -105 50 0 50 0 0 -165 0 -165 -50 0 -50 0 0 -105 0 -105
268 0 267 0 0 105 0 105 -52 0 -53 0 0 105 c0 69 5 118 14 140 33 78 150 105
211 49 24 -22 25 -26 25 -159 l0 -135 -50 0 -50 0 0 -105 0 -105 263 0 262 0
-2 102 c-3 100 -2 102 14 78 35 -52 112 -118 167 -144 151 -71 383 -74 516 -6
75 38 139 123 156 208 l6 32 -146 0 c-141 0 -146 -1 -146 -21 0 -51 -50 -89
-119 -89 -51 0 -86 16 -108 49 -27 40 -31 243 -6 291 35 68 135 90 188 40 23
-21 45 -80 45 -119 0 -19 4 -22 28 -17 15 3 80 11 145 17 l118 12 -6 31 c-11
54 -64 154 -98 182 -18 15 -61 41 -97 58 -58 27 -77 30 -180 34 -228 8 -392
-67 -468 -213 -24 -45 -27 -61 -27 -155 0 -58 4 -117 9 -132 8 -27 7 -28 -33
-28 l-41 0 0 153 c-1 234 -22 292 -127 344 -54 26 -67 28 -173 28 -106 0 -119
-3 -168 -28 -29 -15 -71 -46 -92 -67 l-40 -40 0 75 0 75 -210 0 -210 0 0 -105z
m390 24 c0 -52 13 -89 32 -89 6 0 29 16 51 36 22 20 65 48 96 62 48 23 70 27
151 27 55 0 111 -6 133 -14 46 -16 105 -66 118 -98 5 -13 12 -106 15 -206 4
-100 11 -188 17 -194 5 -7 22 -13 38 -13 l29 0 0 -75 0 -75 -230 0 -230 0 0
75 0 75 34 0 c62 0 68 15 64 171 -3 137 -3 138 -33 169 -68 71 -189 55 -244
-33 -17 -27 -20 -52 -22 -155 -1 -137 4 -152 57 -152 l34 0 0 -75 0 -75 -235
0 -235 0 0 75 0 75 34 0 c59 0 66 21 66 195 0 174 -7 195 -66 195 l-34 0 0 75
0 75 180 0 180 0 0 -51z m1295 28 c101 -25 181 -85 216 -162 30 -66 27 -73
-38 -81 -32 -4 -82 -7 -112 -8 -54 -1 -54 -1 -64 34 -30 117 -159 157 -242 74
-45 -45 -58 -97 -53 -214 6 -150 53 -214 157 -214 61 1 105 25 133 74 l23 40
109 0 109 0 -7 -30 c-14 -71 -89 -143 -181 -174 -27 -9 -93 -19 -145 -22 -174
-11 -329 41 -414 138 -54 61 -68 110 -65 227 1 71 6 94 27 134 46 86 141 153
260 181 71 18 221 19 287 3z"/>
<path d="M2793 276 c-39 -18 -73 -69 -73 -111 0 -44 35 -94 77 -112 45 -18 97
-6 132 31 28 30 38 100 19 135 -30 56 -100 81 -155 57z m111 -47 c47 -37 32
-119 -26 -144 -62 -26 -128 16 -128 82 0 73 92 111 154 62z"/>
</g>
</svg>
